<svg width="40" height="40" viewBox="0 0 40 40" fill="none" xmlns="http://www.w3.org/2000/svg">
<path d="M21.25 21.25C22.2389 21.25 23.2056 21.5432 24.0279 22.0927C24.8501 22.6421 25.491 23.423 25.8694 24.3366C26.2478 25.2502 26.3469 26.2555 26.1539 27.2255C25.961 28.1954 25.4848 29.0863 24.7855 29.7855C24.0863 30.4848 23.1954 30.961 22.2255 31.1539C21.2556 31.3469 20.2502 31.2478 19.3366 30.8694C18.423 30.491 17.6421 29.8501 17.0927 29.0278C16.5432 28.2056 16.25 27.2389 16.25 26.25C16.2517 24.9244 16.779 23.6536 17.7163 22.7163C18.6536 21.779 19.9244 21.2517 21.25 21.25ZM21.25 17.5C19.5194 17.5 17.8277 18.0132 16.3888 18.9746C14.9498 19.9361 13.8283 21.3027 13.1661 22.9015C12.5038 24.5004 12.3305 26.2597 12.6681 27.957C13.0058 29.6544 13.8391 31.2135 15.0628 32.4372C16.2865 33.6609 17.8456 34.4942 19.543 34.8319C21.2403 35.1695 22.9996 34.9962 24.5985 34.3339C26.1973 33.6717 27.5639 32.5502 28.5254 31.1112C29.4868 29.6723 30 27.9806 30 26.25C30 23.9294 29.0781 21.7038 27.4372 20.0628C25.7962 18.4219 23.5706 17.5 21.25 17.5Z" fill="#1F304B"/>
<path d="M24.4825 33.0175L28.0175 29.4825L32.5 33.9625L28.9625 37.5L24.4825 33.0175ZM12.5 32.5H7.5V5H18.965L27.5 13.535V15H30V12.5L20 2.5H7.5C6.83696 2.5 6.20107 2.76339 5.73223 3.23223C5.26339 3.70107 5 4.33696 5 5V32.5C5 33.163 5.26339 33.7989 5.73223 34.2678C6.20107 34.7366 6.83696 35 7.5 35H12.5V32.5Z" fill="#1F304B"/>
<path d="M27.5 15H17.5V5H20L27.5 12.5V15ZM27.5 15H30V17.5H27.5V15Z" fill="#1F304B"/>
</svg>
