<svg width="49" height="49" viewBox="0 0 49 49" fill="none" xmlns="http://www.w3.org/2000/svg">
<path d="M25.9815 41.2648V32.0949H32.0948L24.4532 22.9249L16.8116 32.0949H22.9249V41.2648H15.2832V41.1884C15.0265 41.2037 14.782 41.2648 14.5191 41.2648C11.4791 41.2648 8.56354 40.0572 6.41391 37.9076C4.26429 35.7579 3.05664 32.8424 3.05664 29.8024C3.05664 23.9214 7.50407 19.1286 13.2108 18.4714C13.7112 15.8558 15.1073 13.4963 17.1592 11.7987C19.211 10.1012 21.7902 9.17162 24.4532 9.16998C27.1166 9.17146 29.6963 10.1009 31.7486 11.7984C33.8009 13.4959 35.1977 15.8555 35.6986 18.4714C41.4054 19.1286 45.8467 23.9214 45.8467 29.8024C45.8467 32.8424 44.6391 35.7579 42.4894 37.9076C40.3398 40.0572 37.4243 41.2648 34.3843 41.2648C34.1275 41.2648 33.8799 41.2037 33.6201 41.1884V41.2648H25.9815Z" fill="white"/>
</svg>
